<svg viewBox="0 100 565 665" xmlns="http://www.w3.org/2000/svg"><defs><linearGradient id="linear" x1="0%" y1="0%" x2="100%" y2="0%"><stop offset="0%" stop-color="#18b"/><stop offset="100%" stop-color="#dee"/></linearGradient></defs><style>@keyframes draw{to{stroke-dashoffset:0;stroke-opacity:1}}</style><g id="module-01" transform="translate(-1)" stroke="url(#linear)" stroke-width="4" fill-rule="evenodd" stroke-linecap="butt" stroke-linejoin="round" fill="none" stroke-opacity="1" stroke-dasharray="8,960,24,960,16,400" stroke-dashoffset="6400" style="animation:draw 20s infinite;animation-timing-function:linear;animation-delay:0s"><g id="C21"><path d="M301 476h60l16.031-16.031H472M1 156h76l44 44v116l36 36h20l32 32v16l-12 12v40l32 32h24m48 0h91l4-4h69l4-4h8l44 44h36"/><path d="M301 468h56l16-16h4l4-4M1 132h88l56 56v108l80 80v32l-12 12v24l24 24h16"/><path d="M301 460h52l32-32m-160 4v12l16 16h12"/><path d="M301 452h47l29-29v-3l9-9M137 127v9l16 16v140l80 80v36l4 4v32l8 8h8"/><path d="M301 444h16l4-4h16m12 272h-20l-24-24V524l-8-8v-28m-52-92v44l4 4h4"/><path d="M265 440v-60l-96-96V144l-8-8v-9m100 477-.016-47.984L248.97 544v-15.969L265 512v-24"/><path d="M257 440v-56l-96-96V148l-12-12v-21m91 406 17-17v-16"/><path d="M273 440v-64l-96-96V140l-4-4v-20m87 416v-3l13-13v-28m0 60v-20l8-8v-32m8-48v-88l16-16v-9m44 393h-25l-27-27V529l-8-8v-33"/><path d="M297 440v-84l20-20v-20M1 148l79.99-.01L129 196v116l16 16h20l52 52v24l-12 12.286v32.285L232.429 476H253"/></g></g><g id="static" transform="translate(48 56)" stroke="#DDE0E2" stroke-width="2" fill="none" fill-rule="evenodd" stroke-linecap="round" stroke-linejoin="round"><rect x="204" y="384" width="48" height="48" rx="4"/><circle cx="268" cy="256" r="4"/><circle cx="256" cy="267" r="4"/><circle cx="512" cy="464" r="4"/><circle cx="427" cy="404" r="4"/><circle cx="88" cy="67" r="4"/><circle cx="100" cy="55" r="4"/><circle cx="112" cy="67" r="4"/><circle cx="124" cy="55" r="4"/><circle cx="335" cy="388" r="4"/><circle cx="339" cy="368" r="4"/><circle cx="340" cy="352" r="4"/><circle cx="292" cy="384" r="4"/><circle cx="188" cy="468" r="4"/><circle cx="196" cy="336" r="4"/><circle cx="176" cy="372" r="4"/><circle cx="224" cy="496" r="4"/><circle cx="211" cy="480" r="4"/><rect x="300" y="648" width="56" height="56" rx="4"/></g><g transform="translate(0 115)" id="paths-bg" stroke="#DDE0E2" stroke-width="2" fill="none" fill-rule="evenodd" stroke-linecap="round" stroke-linejoin="round"><path id="path" d="M300 361h60l16.031-16.031H471"/><path d="M0 41h76l44 44v116l36 36h20l32 32v16l-12 12v40l32 32h24m48 0h91l4-4h69l4-4h8l44 44h36m-256-52h56l16-16h4l4-4"/><path d="M0 17h88l56 56v108l80 80v32l-12 12v24l24 24h16m48-8h52l32-32"/><path d="M224 317v12l16 16h12m48-8h47l29-29v-3l9-9"/><path d="M136 12v9l16 16v140l80 80v36l4 4v32l8 8h8m48-8h16l4-4h16m12 272h-20l-24-24V409l-8-8v-28"/><path d="M244 281v44l4 4h4"/><path d="M264 325v-60l-96-96V29l-8-8v-9m100 477-.016-47.984L247.97 429v-15.969L264 397v-24"/><path d="M256 325v-56l-96-96V33l-12-12V0m91 406 17-17v-16"/><path d="M272 325v-64l-96-96V25l-4-4V1m87 416v-3l13-13v-28m0 60v-20l8-8v-32m8-48v-88l16-16v-9m44 393h-25l-27-27V414l-8-8v-33"/><path d="M296 325v-84l20-20v-20M0 33l79.99-.01L128 81v116l16 16h20l52 52v24l-12 12.286v32.285L231.429 361H252"/></g></svg>