<svg viewBox="210 515 355 470" xmlns="http://www.w3.org/2000/svg"><defs><linearGradient id="linear" x1="0%" y1="0%" x2="100%" y2="0%"><stop offset="0%" stop-color="#18b"/><stop offset="100%" stop-color="#dee"/></linearGradient></defs><style>@keyframes draw{to{stroke-dashoffset:0;stroke-opacity:1}}</style><g id="module-01" transform="translate(-1)" stroke="url(#linear)" stroke-width="4" fill-rule="evenodd" stroke-linecap="butt" stroke-linejoin="round" fill="none" stroke-opacity="1" stroke-dasharray="8,960,24,960,16,400" stroke-dashoffset="6400" style="animation:draw 20s infinite;animation-timing-function:linear;animation-delay:0s"><g id="C17"><path d="M405 720h15M240 567l5 5v20l-12 12v32l48 48v16l36 36h32m56 0h15"/><path d="M267.976 655v3.976L289 680v16l32 32h28"/><path d="M217 567.993V644l48 48v16l44 44h40m56 0h15"/><path d="m230 587-5 5v48l48 48v16l40 40h36m7-40v-16l-32-32v-32l-8-8v-52m-58 400v-18l11-11v-39l88-88v-48"/><path d="M270 952v-5l8-8v-40l87-87v-52"/><path d="M282 964v-17l4-4v-40l87-88v-55"/><path d="M294 952v-45l87-87v-60"/><path d="M342 947v-4l4-4v-72l43-43v-64"/><path d="M353 967v-95l44-44v-68m8-48h5m-5 16h5m-5 16h5m-38-40v-24l-31-31v-84"/><path d="M364 704v-21l-31-31v-44l-4-4v-27.019"/><path d="M380 704v-29l-31-31v-40l8-8v-32"/><path d="M388 704v-32l-31-31v-33.015l7.992-7.993V568l20.03-20.029H417l27.986-27.985H461l56.007 56.007H533l8.06-8.06H553"/><path d="M396 704v-36l-31-31v-26l8-8v-23l13-13"/></g></g><g id="static" transform="translate(48 56)" stroke="#DDE0E2" stroke-width="2" fill="none" fill-rule="evenodd" stroke-linecap="round" stroke-linejoin="round"><rect x="300" y="648" width="56" height="56" rx="4"/><circle cx="508" cy="512" r="4"/><circle cx="340" cy="508" r="4"/><circle cx="168" cy="508" r="4"/><circle cx="188" cy="508" r="4"/><circle cx="184" cy="528" r="4"/><circle cx="308" cy="504" r="4"/><circle cx="292" cy="504" r="4"/><circle cx="267" cy="504" r="4"/><circle cx="280" cy="517" r="4"/><circle cx="304" cy="915" r="4"/><circle cx="293" cy="895" r="4"/><circle cx="245" cy="900" r="4"/><circle cx="221" cy="900" r="4"/><circle cx="233" cy="912" r="4"/><circle cx="209" cy="912" r="4"/><circle cx="375" cy="696" r="4"/><circle cx="375" cy="680" r="4"/><circle cx="375" cy="664" r="4"/></g><g transform="translate(216 519)" id="paths-bg" stroke="#DDE0E2" stroke-width="2" fill="none" fill-rule="evenodd" stroke-linecap="round" stroke-linejoin="round"><path d="M188 201h15" id="path"/><path d="m23 48 5 5v20L16 85v32l48 48v16l36 36h32m56 0h15"/><path d="M50.976 136v3.976L72 161v16l32 32h28"/><path d="M0 48.993V125l48 48v16l44 44h40m56 0h15"/><path d="m13 68-5 5v48l48 48v16l40 40h36m7-40v-16l-32-32v-32l-8-8V45M41 445v-18l11-11v-39l88-88v-48"/><path d="M53 433v-5l8-8v-40l87-87v-52"/><path d="M65 445v-17l4-4v-40l87-88v-55"/><path d="M77 433v-45l87-87v-60"/><path d="M125 428v-4l4-4v-72l43-43v-64"/><path d="M136 448v-95l44-44v-68m8-48h5m-5 16h5m-5 16h5m-38-40v-24l-31-31V46"/><path d="M147 185v-21l-31-31V89l-4-4V57.981"/><path d="M163 185v-29l-31-31V85l8-8V45"/><path d="M171 185v-32l-31-31V88.985l7.992-7.993V49l20.03-20.029H200L227.986.986H244l56.007 56.007H316l8.06-8.06H336"/><path d="M179 185v-36l-31-31V92l8-8V61l13-13"/></g></svg>