<svg viewBox="0 235 75 300" xmlns="http://www.w3.org/2000/svg"><defs><linearGradient id="linear" x1="0%" y1="0%" x2="100%" y2="0%"><stop offset="0%" stop-color="#18b"/><stop offset="100%" stop-color="#dee"/></linearGradient></defs><style>@keyframes draw{to{stroke-dashoffset:0;stroke-opacity:1}}</style><g id="module-01" transform="translate(-1)" stroke="url(#linear)" stroke-width="4" fill-rule="evenodd" stroke-linecap="butt" stroke-linejoin="round" fill="none" stroke-opacity="1" stroke-dasharray="8,960,24,960,16,400" stroke-dashoffset="6400" style="animation:draw 20s infinite;animation-timing-function:linear;animation-delay:0s"><g id="C22"><path d="M1 239h24l32 32v124l12 12v4"/><path d="M1 247h20l29 29v124l3 3v8"/><path d="M1 271h7l16 16v121l-11.045 11.045L13 487v9L0 509"/><path d="m0 521 21-21v-76l12-12V284l-21-21H1"/><path d="M0 556v-24l29-29v-75l12-12V279l-24-24H1"/></g></g><g id="static" transform="translate(48 56)" stroke="#DDE0E2" stroke-width="2" fill="none" fill-rule="evenodd" stroke-linecap="round" stroke-linejoin="round"><circle cx="20" cy="359" r="4"/><circle cx="4" cy="359" r="4"/></g><g transform="translate(-1 239)" id="paths-bg" stroke="#DDE0E2" stroke-width="2" fill="none" fill-rule="evenodd" stroke-linecap="round" stroke-linejoin="round"><path id="path" d="M1 0h24l32 32v124l12 12v4"/><path d="M1 8h20l29 29v124l3 3v8"/><path d="M1 32h7l16 16v121l-11.045 11.045L13 248v9L0 270"/><path d="m0 282 21-21v-76l12-12V45L12 24H1"/><path d="M0 317v-24l29-29v-75l12-12V40L17 16H1"/></g></svg>