<svg viewBox="0 760 140 160" xmlns="http://www.w3.org/2000/svg"><defs><linearGradient id="linear" x1="0%" y1="0%" x2="100%" y2="0%"><stop offset="0%" stop-color="#18b"/><stop offset="100%" stop-color="#dee"/></linearGradient></defs><style>@keyframes draw{to{stroke-dashoffset:0;stroke-opacity:1}}</style><g id="module-01" transform="translate(-1)" stroke="url(#linear)" stroke-width="4" fill-rule="evenodd" stroke-linecap="butt" stroke-linejoin="round" fill="none" stroke-opacity="1" stroke-dasharray="8,960,24,960,16,400" stroke-dashoffset="6400" style="animation:draw 20s infinite;animation-timing-function:linear;animation-delay:0s"><g id="C18" transform="translate(1 771)"><path id="Path-4-Copy-466" d="M0 137h60l40-40V20L119.026.974h9.032"/><path id="Path-4-Copy-467" d="M0 129h56l36-36V13l8.513-8.513"/><path id="Path-4-Copy-468" d="M0 121h53l32-32V42l-9-9V19"/><path id="Path-4-Copy-469" d="M0 113h47l28-28V43L65 33V5"/><path id="Path-4-Copy-470" d="M0 105h44l24-24V49L52 33V19"/><path id="Path-4-Copy-165" d="M0 145h67l9-9"/></g></g><g id="static" transform="translate(48 56)" stroke="#DDE0E2" stroke-width="2" fill="none" fill-rule="evenodd" stroke-linecap="round" stroke-linejoin="round"><circle cx="4" cy="729" r="4"/><circle cx="17" cy="716" r="4"/><circle cx="56" cy="716" r="4"/><circle cx="84" cy="716" r="4"/><circle cx="28" cy="729" r="4"/><circle cx="31" cy="848" r="4"/></g><g id="paths-bg" stroke="#DDE0E2" stroke-width="2" fill="none" fill-rule="evenodd" stroke-linecap="round" stroke-linejoin="round"><path d="M0 908h60l40-40v-77l19.026-19.026h9.032"/><path d="M0 900h56l36-36v-80l8.513-8.513"/><path d="M0 892h53l32-32v-47l-9-9v-14"/><path d="M0 884h47l28-28v-42l-10-10v-28"/><path d="M0 876h44l24-24v-32l-16-16v-14M0 916h67l9-9"/></g></svg>