<svg viewBox="170 0 140 490" xmlns="http://www.w3.org/2000/svg"><defs><linearGradient id="linear" x1="0%" y1="0%" x2="100%" y2="0%"><stop offset="0%" stop-color="#18b"/><stop offset="100%" stop-color="#dee"/></linearGradient></defs><style>@keyframes draw{to{stroke-dashoffset:0;stroke-opacity:1}}</style><g id="module-01" transform="translate(-1)" stroke="url(#linear)" stroke-width="4" fill-rule="evenodd" stroke-linecap="butt" stroke-linejoin="round" fill="none" stroke-opacity="1" stroke-dasharray="8,960,24,960,16,400" stroke-dashoffset="6400" style="animation:draw 20s infinite;animation-timing-function:linear;animation-delay:0s"><g id="C23"><path d="M229 92h32l32-32V0"/><path d="M229 84h28l28-28V0"/><path d="M229 76h24l24-24V0"/><path d="M229 68h20l20-20V0"/><path d="M229 60h16l16-16V0m-68 56V0m-8 56V0m16 56V0m8 56V0m8 56V0m8 56V0m-48 92h4m48 8h20l8.016 8.016v15.991M177 100h4m-4-16h4m-4-8h4m-4-8h4m-4-8h4m92 224h-8l-4 4h-52l-16-16V104"/><path d="M281 439v-67l-96-96V104"/><path d="M301 272h-36l-8 8h-44l-12-12V104"/><path d="M245 268h-32l-4-4V104"/><path d="M221.031 252v-7.969L217 240V104m8 4v-4 80l8 8h8"/></g></g><g id="static" transform="translate(48 56)" stroke="#DDE0E2" stroke-width="2" fill="none" fill-rule="evenodd" stroke-linecap="round" stroke-linejoin="round"><rect x="132" width="48" height="48" rx="4"/><circle cx="172" cy="200" r="4"/><circle cx="200" cy="212" r="4"/><circle cx="228" cy="228" r="4"/><circle cx="256" cy="216" r="4"/><circle cx="208" cy="72" r="4"/><rect x="204" y="384" width="48" height="48" rx="4"/></g><g transform="translate(176)" id="paths-bg" stroke="#DDE0E2" stroke-width="2" fill="none" fill-rule="evenodd" stroke-linecap="round" stroke-linejoin="round"><path id="path" d="M52 92h32l32-32V0"/><path d="M52 84h28l28-28V0"/><path d="M52 76h24l24-24V0"/><path d="M52 68h20l20-20V0"/><path d="M52 60h16l16-16V0M16 56V0M8 56V0m16 56V0m8 56V0m8 56V0m8 56V0M0 92h4m48 8h20l8.016 8.016v15.991M0 100h4M0 84h4m-4-8h4m-4-8h4m-4-8h4m92 224h-8l-4 4H32l-16-16V104"/><path d="M104 439v-67L8 276V104"/><path d="M124 272H88l-8 8H36l-12-12V104"/><path d="M68 268H36l-4-4V104"/><path d="M44.031 252v-7.969L40 240V104m8 4v-4 80l8 8h8"/></g></svg>