<svg viewBox="0 610 175 75" xmlns="http://www.w3.org/2000/svg"><defs><linearGradient id="linear" x1="0%" y1="0%" x2="100%" y2="0%"><stop offset="0%" stop-color="#18b"/><stop offset="100%" stop-color="#dee"/></linearGradient></defs><style>@keyframes draw{to{stroke-dashoffset:0;stroke-opacity:1}}</style><g id="module-01" transform="translate(-1)" stroke="url(#linear)" stroke-width="4" fill-rule="evenodd" stroke-linecap="butt" stroke-linejoin="round" fill="none" stroke-opacity="1" stroke-dasharray="8,960,24,960,16,400" stroke-dashoffset="6400" style="animation:draw 20s infinite;animation-timing-function:linear;animation-delay:0s"><g id="C20"><path d="M1 643h88l13-13v-7"/><path d="M1 651h93l24.02-24.02V623"/><path d="M1 659h96l37-37"/><path d="M1 675h4l8-8.062 88 .062 35-35h8l9-9"/><path d="M1 683h9l8-8h87l36-36h24"/></g></g><g id="static" transform="translate(48 56)" stroke="#DDE0E2" stroke-width="2" fill="none" fill-rule="evenodd" stroke-linecap="round" stroke-linejoin="round"><circle cx="53" cy="563" r="4"/><circle cx="120" cy="583" r="4"/><circle cx="69" cy="563" r="4"/><circle cx="107" cy="563" r="4"/><circle cx="88" cy="563" r="4"/></g><g transform="translate(0 622)" id="paths-bg" stroke="#DDE0E2" stroke-width="2" fill="none" fill-rule="evenodd" stroke-linecap="round" stroke-linejoin="round"><path id="path" d="M0 21h88l13-13V1"/><path d="M0 29h93l24.02-24.02V1"/><path d="M0 37h96l37-37"/><path d="M0 53h4l8-8.062L100 45l35-35h8l9-9"/><path d="M0 61h9l8-8h87l36-36h24"/></g></svg>