<svg viewBox="160 530 160 715" xmlns="http://www.w3.org/2000/svg"><defs><linearGradient id="linear" x1="0%" y1="0%" x2="100%" y2="0%"><stop offset="0%" stop-color="#18b"/><stop offset="100%" stop-color="#dee"/></linearGradient></defs><style>@keyframes draw{to{stroke-dashoffset:0;stroke-opacity:1}}</style><g id="module-01" transform="translate(-1)" stroke="url(#linear)" stroke-width="4" fill-rule="evenodd" stroke-linecap="butt" stroke-linejoin="round" fill="none" stroke-opacity="1" stroke-dasharray="8,960,24,960,16,400" stroke-dashoffset="6400" style="animation:draw 20s infinite;animation-timing-function:linear;animation-delay:0s"><g id="C16" transform="translate(166 539)"><path id="paths" d="M43 317v-77l29-29v-38l-4-4v-13"/><path d="M27 317v-85l24-24v-3m8 112v-69l29.017-29.017V208l4.113-4.113V197"/><path d="M51 317v-73l29-29v-47"/><path d="M35 317v-80l29-29v-31l-13-13v-35l-16-16V45L0 10V0"/><path d="M19 317v-88l17-17v-75l-20-20V88m47 273h20l8.016 8.016v15.991M59 369v-4 80l8 8h8"/><path d="M107 545h-8l-4 4H43l-16-16V365"/><path d="M79 529H47l-4-4V365m20-12h32l32-32v-72l17-17"/><path d="M63 345h28l28-28v-76l10-10"/><path d="M63 337h24l24-24v-81"/><path d="M63 329h20l20-20v-57l-4-4v-4"/><path d="M63 321h16l16-16v-49l-4-4m24 448v-67l-96-96V365"/><path d="M135 533H99l-8 8H47l-12-12V365"/><path d="M55.031 513v-7.969L51 501V365"/></g></g><g id="static" transform="translate(48 56)" stroke="#DDE0E2" stroke-width="2" fill="none" fill-rule="evenodd" stroke-linecap="round" stroke-linejoin="round"><rect x="132" y="800" width="48" height="48" rx="4"/><circle cx="117" cy="479" r="4"/><circle cx="133" cy="567" r="4"/><circle cx="209" cy="676" r="4"/><circle cx="197" cy="647" r="4"/><circle cx="228" cy="1028" r="4"/><circle cx="208" cy="872" r="4"/><circle cx="264" cy="711" r="4"/><circle cx="249" cy="711" r="4"/><circle cx="228" cy="711" r="4"/><circle cx="216" cy="723" r="4"/><circle cx="205" cy="731" r="4"/><circle cx="256" cy="1016" r="4"/><circle cx="200" cy="1012" r="4"/><circle cx="172" cy="1000" r="4"/></g><g id="paths-bg" stroke="#DDE0E2" stroke-width="2" fill="none" fill-rule="evenodd" stroke-linecap="round" stroke-linejoin="round"><path d="M208 856v-77l29-29v-38l-4-4v-13"/><path d="M192 856v-85l24-24v-3m8 112v-69l29.017-29.017V747l4.113-4.113V736"/><path d="M216 856v-73l29-29v-47"/><path d="M200 856v-80l29-29v-31l-13-13v-35l-16-16v-68l-35-35v-10"/><path d="M184 856v-88l17-17v-75l-20-20v-29m47 273h20l8.016 8.016v15.991M224 908v-4 80l8 8h8"/><path d="M272 1084h-8l-4 4h-52l-16-16V904"/><path d="M244 1068h-32l-4-4V904m20-12h32l32-32v-72l17-17"/><path d="M228 884h28l28-28v-76l10-10"/><path d="M228 876h24l24-24v-81"/><path d="M228 868h20l20-20v-57l-4-4v-4"/><path d="M228 860h16l16-16v-49l-4-4m24 448v-67l-96-96V904"/><path d="M300 1072h-36l-8 8h-44l-12-12V904"/><path d="M220.031 1052v-7.969L216 1040V904"/></g></svg>