<svg viewBox="295 0 515 380" xmlns="http://www.w3.org/2000/svg"><defs><linearGradient id="linear" x1="0%" y1="0%" x2="100%" y2="0%"><stop offset="0%" stop-color="#18b"/><stop offset="100%" stop-color="#dee"/></linearGradient></defs><style>@keyframes draw{to{stroke-dashoffset:0;stroke-opacity:1}}</style><g id="module-01" transform="translate(-1)" stroke="url(#linear)" stroke-width="4" fill-rule="evenodd" stroke-linecap="butt" stroke-linejoin="round" fill="none" stroke-opacity="1" stroke-dasharray="8,960,24,960,16,400" stroke-dashoffset="6400" style="animation:draw 20s infinite;animation-timing-function:linear;animation-delay:0s"><g id="C14"><path d="M581 196h16l12 12v16l24 24h92l5-5h7"/><path d="M581 188h20l16 16v16l20 20h84.006l7.997-7.997H789l13.001-13.002L803 218v-47m-222 9h12m-12-8h12m96.056 198.997h-9.053L677 367.993h-43.993L605.014 340v-72.986L569 231v-15m-260-48.033h20.967L345 183h100l29 29h59"/><path d="M581 212h8l4 4v16l28 28v36l56 56h28l4-4h8"/><path d="M581 204h12l8 8v15l28 28v37.014l51.993 51.993h20.032l9.044-9.045H729M557 360v-4l17-17v-19l-17-17v-36l-20-20v-31m52 136v-76l-36-36v-24m-21-20h-51l-28-28V0m92 168v-20l36-36V0"/><path d="M533 204h-55l-33-33V0m92 167v-23l36-36V0m.004 360v-8.996l7.996-7.996V280l-36-36v-28"/><path d="M604.997 360v-7.997L597 344.007V271l-36-36v-19"/><path d="M729.005 359H637l-24-24v-71l-36-36v-12m-43.99-27.978h-46.992L461 163.005V0m92 168v-16l36-36V0"/><path d="M533 180h-43l-21-21V0m92 168v-12l36-36V0"/><path d="M533 172h-39l-17-17V0m92 168v-8l36-36V0"/><path d="M577 168v-4l36-36V0"/></g></g><g id="static" transform="translate(48 56)" stroke="#DDE0E2" stroke-width="2" fill="none" fill-rule="evenodd" stroke-linecap="round" stroke-linejoin="round"><rect x="484" y="112" width="48" height="48" rx="4"/><circle cx="508" cy="308" r="4"/><circle cx="524" cy="308" r="4"/><circle cx="540" cy="300" r="4"/><circle cx="556" cy="308" r="4"/><circle cx="684" cy="279" r="4"/><circle cx="684" cy="303" r="4"/><circle cx="672" cy="292" r="4"/><circle cx="754" cy="111" r="4"/><circle cx="256" cy="112" r="4"/></g><g transform="translate(308)" id="paths-bg" stroke="#DDE0E2" stroke-width="2" fill="none" fill-rule="evenodd" stroke-linecap="round" stroke-linejoin="round"><path id="path" d="M272 196h16l12 12v16l24 24h92l5-5h7"/><path d="M272 188h20l16 16v16l20 20h84.006l7.997-7.997H480l13.001-13.002L494 218v-47m-222 9h12m-12-8h12m96.056 198.997h-9.053L368 367.993h-43.993L296.014 340v-72.986L260 231v-15M0 167.967h20.967L36 183h100l29 29h59"/><path d="M272 212h8l4 4v16l28 28v36l56 56h28l4-4h8"/><path d="M272 204h12l8 8v15l28 28v37.014l51.993 51.993h20.032l9.044-9.045H420M248 360v-4l17-17v-19l-17-17v-36l-20-20v-31m52 136v-76l-36-36v-24m-21-20h-51l-28-28V0m92 168v-20l36-36V0"/><path d="M224 204h-55l-33-33V0m92 167v-23l36-36V0m.004 360v-8.996l7.996-7.996V280l-36-36v-28"/><path d="M295.997 360v-7.997L288 344.007V271l-36-36v-19"/><path d="M420.005 359H328l-24-24v-71l-36-36v-12m-43.99-27.978h-46.992L152 163.005V0m92 168v-16l36-36V0"/><path d="M224 180h-43l-21-21V0m92 168v-12l36-36V0"/><path d="M224 172h-39l-17-17V0m92 168v-8l36-36V0"/><path d="M268 168v-4l36-36V0"/></g></svg>