<svg xmlns="http://www.w3.org/2000/svg" viewBox="0 0 575 284" xml:space="preserve"><clipPath id="a"><path d="m406.23 148.676 8.157-13.328 14.59-.783 5.179 8zM77.441 122.793l74.996 20.246 4.17 8.418-10.502 9.668 5.915 15.166 15.583-.834 2.919 7.166-64.417 18.502 15.583-21.916s20.588.418 20.588-.834c0-1.25-3.753-11.336-3.753-11.336s-2.502-3.412-1.251-5.914 5.005-4.246 2.085-5.498-5.421 1.252-9.251 1.252-16-3.754-16-3.754-.911-5.916-4.247-6.332c-3.336-.418-17.668-2.502-17.668-2.502zm101.498 66.502c0-1.25-27.753-65.668-27.753-65.668l14.672 8.834 2.996 8.834 16.834 3.83-6.749-12.664-8.417-6.255-17.668-54.332s.341-3.336 3.336-.417c2.996 2.919 19.413 21.004 19.413 21.004l16.834 53.914 7.166 1.252-4.664-15.583 25.251 30.331.417 12.248h31.583l-13.081 16.416-4.587 1.252-.417 14.748-3.875 4.697-.94-25.41 4.396-.941 6.747-4.865-19.612 1.104s0 11.912-.47 14.582c-.47 2.672-3.761 11.77-3.761 11.77l-13.962-51.77-29.179-1.723 9.097 21.648c-.002 0-3.607 14.416-3.607 13.164m54.59-34.969 22.276 3.455s5.485 6.582 5.485 7.209-20.545 1.104-20.545 1.104zm14.119 32.469s34.037-16 34.978-15.373c.94.627 4.709 2.828 4.709 2.828l-27.769 19.762zm-27.455-30.902-24.313-25.567 1.411-7.06 23.373 23.217zm.47-13.955-23.53-21.963v-5.963l11.455.313 12.702 16.313zm53.179 23.208c-.157-.471-3.925-4.074-3.925-4.074l-9.411-94.59 4.082-7.216 16.313 10.194-.47 64.164s36.858-2.671 37.329-2.828c.47-.157 3.926-43.134 3.926-43.134l16.94 30.59-6.59 45.329-8.471 10.828-6.433-7.531 2.045-15.059s8.94-3.455 8.94-3.926-1.262-4.074-1.262-4.074l-9.41 4.074.47-6.433-6.582.478-20.865 67.918-.156-50.037 9.724-14.277-3.448-7.686-2.358-.156-1.254 4.866-11.76-.471.313 8.314c0-.001-7.53 15.208-7.687 14.737m70.277-35.447 11.604 14.903-7.06 27.918-33.254 42.672-8.471 2.82 29.963-50.193zm15.529 24.783c1.411 0 19.762-.156 19.762-.156l7.843-6.59 24-61.172 18.664-14.12 5.18.47-3.135 5.336-.626 4.858-29.18 65.723-10.351 6.59 2.351 2.986 6.276-4.082 17.568-.94-3.77 6.434-24.939 9.254 1.41 6.59-10.508 8.939-6.902 13.807-10.978 11.133.783-5.648 14.119-32.312-8.783.312-1.889 6.275-9.724 5.023 2.202 3.291-22.903 18.82-9.731.635 29.179-33.262s4.395-17.881 4.082-18.194m49.098 14.432 56-26.037 11.604.314-60.858 33.566z"/></clipPath><linearGradient id="b" gradientTransform="rotate(90)"><stop offset="10%" stop-color="#FFEA00"/><stop offset="97.5%" stop-color="#ED1C24"/></linearGradient><path clip-path="url(#a)" fill="url(#b)" d="M77.44 59.1h398.88v158.48H77.44z"/><path fill="#FFF" stroke="#000" stroke-width=".25" d="M97.818 100.5h49.768v3.319h-3.758L154.172 131l11.535-27.358h-4.819V100.5h21.172v3.142h-3.535L165.53 136.5h-13.172l-12.949-32.681h-2.521v8.177h-3.005v-5.349s-.483-2.828-4.065-2.828h-16.354v13.655h12.949c1.944 0 2.875-3.888 2.875-3.888h1.944v11.004h-2.521s-.177-3.888-2.651-3.888h-12.949v12.772s14.056-.354 17.061-.354 4.595-4.949 4.595-4.949h2.298v8.328H97.818v-3.025h4.949v-29.479h-5.125zm70.717 36v-2.849h2.875s.707-.837 2.121-4.242 12.112-28.909 12.112-28.909H197l13.349 32.975H213v-30.009h-3.889V100.5h20.949l12.818 31.03v-27.711h-4.289V100.5h12.996v3.672h-4.819v29.302h3.228v3.025h-21.702l-11.935-29.323v24.707s.753 1.767 1.637 1.767 2.828.177 2.828.177v2.672h-27.535v-2.849h4.065l-10.475-27.358-10.344 24s.046 2.828 1.46 2.828h3.182v3.379h-12.64z"/><path fill="#FFF" stroke="#000" stroke-width=".25" d="M265.818 101.121c7.726 0 11.712 3.405 11.712 3.405s1.944.53 2.474-.354 2.875-3.672 2.875-3.672h3.888v13.439h-8.707v-6.409s-4.772-3.358-9.237-3.358-8.707 2.297-8.707 8.707v16.177s2.344 5.302 7.293 5.302 7.47-2.298 8-3.182 0-9.768 0-9.768h-4.465v-3.228h15.823v18.32h-2.828v-3.088c0-.946-.93-2.697-3.228-2.554-1.868.117-4.595 6.551-13.479 6.551s-19.051-6.279-19.051-12.112c0-5.832.177-11.181.177-11.181s.93-12.995 17.46-12.995zm61.833-.621h18.168v3.849h-1.638s-1.414-.53-1.414 1.414v28.596h12.642s2.298-3.535 2.651-5.479c.354-1.944 1.414-3.582 1.414-3.582h2.521l-1.638 11.203h-32.354v-2.496h3.758V104.35h-4.111zm35.582 3.142V100.5H381v3.849h-2.65s-1.414-.53-1.414 1.414-.047 27.358-.047 27.358.508 1.15 1.265 1.15h3.847v2.854h-20.125v-2.875H365s1.375-.375 1.375-1.375V105.5s-.5-1.25-1.25-1.25-1.892-.608-1.892-.608z"/><path fill-rule="evenodd" clip-rule="evenodd" stroke="#000" stroke-width=".25" fill="#FFF" d="M400.125 104.125c-6.75 0-7.75 6.5-7.75 6.5v18.5c0 2 1.409 5.125 8.534 5.125s8.341-5.125 8.341-5.125V111.5c0-5-3.25-7.375-9.125-7.375m-.375-2.25c9 0 20.5 3.875 20.5 17.25s-10.75 17.8-20.5 17.8S381 132.875 381 120.5s5.875-18.625 18.75-18.625"/><path fill="#FFF" stroke="#000" stroke-width=".25" d="m287.982 100.5 39.074.007-.005 11.488h-3.004v-5.349s-.484-2.828-4.065-2.828h-16.354v13.655h12.949c1.943 0 2.874-3.888 2.874-3.888h1.944v11.004h-2.521s-.177-3.888-2.651-3.888h-12.948v12.772s14.056-.354 17.061-.354c3.004 0 4.595-4.949 4.595-4.949h2.298v8.328h-39.246v-3.025h4.948v-29.479h-4.994zm135.095 31.757V103.81h-3.888v-2.965h20.948l12.818 31.03v-26.218c0-1-.851-1.493-.851-1.493h-3.438v-3.319h12.995v3.389h-3.968s-.851.424-.851 1.612v27.974h3.228v3.025h-21.7l-11.935-29.323v24.707s.754 1.768 1.637 1.768c.884 0 2.828.176 2.828.176v2.672h-11.661v-2.849l2.084-.096c1.396 0 1.754-1.643 1.754-1.643z"/></svg>